<?xml version="1.0" encoding="UTF-8" standalone="no"?>
<svg version="1.1" viewBox="0 0 420 410" xmlns="http://www.w3.org/2000/svg">
  <g transform="matrix(3.7795276,0,0,3.7795276,-621.452,-381.55942)">
    <path
      style="fill: #000000; stroke-width: 0.264583"
      d="m 207.15916,196.45304 c -17.89735,-7.24755 -32.73401,-13.29813 -32.97035,-13.44573 -0.23635,-0.1476 -2.5297,-3.27359 -5.09634,-6.94663 -3.69012,-5.28081 -4.66663,-6.85602 -4.66663,-7.52775 0,-0.60757 4.86307,-10.22128 17.07603,-33.75734 9.39182,-18.09932 17.32266,-33.11621 17.62411,-33.37087 0.31206,-0.26364 0.9627,-0.45752 1.51094,-0.45026 0.65907,0.009 11.35643,4.41456 33.9035,13.96351 l 32.94063,13.95075 4.15813,6.87242 c 2.61794,4.32685 4.16149,7.14063 4.16719,7.59649 0.0101,0.80555 -32.47185,64.7567 -33.39686,65.7525 -0.41092,0.44236 -0.83005,0.58824 -1.63135,0.5678 -0.76889,-0.0196 -10.41699,-3.80921 -33.619,-13.20489 z m 34.94138,-14.98243 c 1.22182,-12.20356 2.22329,-22.42783 2.22548,-22.72061 0.004,-0.50657 -0.90185,-0.64531 -18.7307,-2.86932 -10.30408,-1.28535 -18.97541,-2.29596 -19.26963,-2.24581 -0.63366,0.10803 -22.36615,20.65237 -22.10375,20.89531 0.099,0.0916 10.89557,6.10129 23.99244,13.35478 17.9877,9.9622 24.71858,13.55765 27.51667,14.69861 2.03729,0.83073 3.80403,1.41253 3.92608,1.29288 0.12205,-0.11965 1.22159,-10.20227 2.44341,-22.40584 z m 14.81729,-11.36831 13.54478,-26.60539 -2.51884,-4.27813 c -1.38536,-2.35297 -2.66125,-4.43242 -2.8353,-4.621 -0.25192,-0.27296 -2.09262,1.98924 -9.0261,11.09297 -4.79031,6.28972 -8.79301,11.57229 -8.8949,11.73904 -0.10188,0.16675 -1.02578,8.68851 -2.05311,18.93723 -1.02733,10.24873 -1.93983,19.1103 -2.02779,19.69238 -0.088,0.58209 -0.064,0.96607 0.0533,0.85331 0.11726,-0.11277 6.30835,-12.17745 13.75798,-26.81041 z m -45.01251,22.69097 c -0.29286,-0.26032 -26.48688,-14.71478 -29.6201,-16.34504 -2.27202,-1.18218 -9.36567,-4.19103 -9.50707,-4.03254 -0.047,0.0527 0.93971,1.53931 2.1927,3.3036 l 2.27815,3.2078 17.33478,7.02885 c 9.53412,3.86587 17.38835,7.03603 17.45383,7.0448 0.0655,0.009 0.006,-0.0846 -0.13229,-0.20747 z m -18.80131,-30.41971 c 6.20065,-5.86691 11.27392,-10.80142 11.27392,-10.96559 0,-0.53191 -4.26113,-41.32185 -4.32318,-41.38389 -0.051,-0.051 -22.61739,43.29814 -28.4069,54.56848 l -1.91236,3.72275 5.7457,2.41263 c 3.16013,1.32694 5.88142,2.39015 6.0473,2.36267 0.16588,-0.0275 5.37486,-4.85015 11.57552,-10.71705 z m 60.97844,-18.17539 c 4.82262,-6.33175 8.76791,-11.60027 8.76733,-11.70781 -0.001,-0.20617 -60.34812,-25.79184 -60.49257,-25.64739 -0.0916,0.0916 4.34225,43.52813 4.48805,43.96765 0.0837,0.25216 35.00672,4.80065 37.38147,4.86868 l 1.08734,0.0311 z m -33.44088,-1.98147 c -2.00715,-4.65667 -3.71968,-8.46667 -3.80562,-8.46667 -0.0859,0 -1.4058,0.47625 -2.93302,1.05833 -1.52722,0.58209 -2.7875,1.05834 -2.80062,1.05834 -0.10765,0 -0.98011,-2.91176 -0.88948,-2.96858 0.065,-0.0408 0.9289,-0.47771 1.91972,-0.97097 2.21606,-1.10321 3.09329,-2.23912 3.09329,-4.00543 v -1.20755 l 1.77781,-0.57801 c 0.9778,-0.3179 1.86114,-0.49101 1.96299,-0.38467 0.19471,0.2033 10.81129,22.69483 10.81129,22.90404 0,0.15095 -4.81666,2.02783 -5.20404,2.02783 -0.15562,0 -1.92517,-3.81 -3.93232,-8.46666 z m 14.95548,3.20768 c -3.43382,-1.12381 -6.78233,-4.69021 -9.24373,-9.84523 -1.39021,-2.91156 -2.39623,-6.23556 -2.39623,-7.91738 0,-2.50544 1.17297,-4.14855 3.89679,-5.45865 2.51348,-1.20893 5.03986,-1.47892 7.18179,-0.76748 1.57626,0.52355 4.47875,2.72006 5.95316,4.50516 3.95037,4.7828 6.47123,11.03786 5.71643,14.18425 -0.7086,2.95374 -4.30119,5.30165 -8.32752,5.44237 -1.16464,0.0407 -2.41595,-0.0237 -2.78069,-0.14304 z m 4.69096,-5.05255 c 1.43341,-0.87398 1.45841,-2.2115 0.10249,-5.4839 -1.41808,-3.42244 -4.91315,-8.66522 -6.44628,-9.66977 -1.61597,-1.05883 -3.92323,-0.65636 -4.79615,0.83661 -0.48241,0.82506 -0.48317,0.90488 -0.0249,2.61948 0.98212,3.67505 5.14006,10.51565 7.12899,11.72856 1.06661,0.65044 2.94192,0.63605 4.0359,-0.031 z"
    />
  </g>
</svg>
