<?xml version="1.0" encoding="UTF-8" standalone="no"?>
<svg version="1.1" viewBox="0 0 411 397" xmlns="http://www.w3.org/2000/svg">
  <g transform="matrix(3.7795276,0,0,3.7795276,9.3280578,-90.342045)">
    <path
      style="fill: #000000; stroke-width: 0.264583"
      d="M 33.749451,126.0924 28.824241,123.122 15.445371,107.92891 2.0665014,92.735827 -0.20077859,86.074977 c -1.24700001,-3.66347 -2.26727001,-6.948 -2.26727001,-7.29895 0,-0.35095 3.01560001,-8.32693 6.70134,-17.7244 l 6.7013396,-17.08631 6.31282,-6.92202 c 5.10599,-5.59873 6.49302,-6.97254 7.25543,-7.18627 1.77207,-0.49675 40.09952,-6.10109 40.6987,-5.95107 1.04067,0.26057 29.83896,22.01709 30.21195,22.82451 0.69733,1.50956 10.659759,25.89863 10.886729,26.65187 0.20192,0.67011 -0.67073,3.5188 -5.87615,19.18229 -4.142619,12.465423 -6.295749,18.580503 -6.679289,18.969773 -0.3113,0.31595 -5.20588,3.0387 -10.87684,6.05055 l -10.31084,5.4761 -16.24937,3.01143 c -8.93715,1.65628 -16.5607,3.00667 -16.94124,3.00087 -0.39868,-0.006 -2.77897,-1.26928 -5.61708,-2.98095 z m 21.6621,-4.92491 15.41399,-2.88045 6.9433,-3.63074 c 3.81883,-1.99691 7.06238,-3.7409 7.2079,-3.87553 0.16374,-0.15149 -0.13878,-0.18733 -0.79375,-0.094 -0.58209,0.0829 -4.68974,0.5023 -9.12813,0.93195 l -8.06979,0.78118 -15.73679,4.3894 c -8.65524,2.41417 -15.77379,4.42639 -15.819,4.47161 -0.0816,0.0816 4.18266,2.74787 4.436,2.77361 0.0728,0.007 7.06858,-1.28276 15.54627,-2.867 z m -5.88898,-6.51884 c 8.73125,-2.42491 15.89384,-4.42547 15.91687,-4.44569 0.0231,-0.0202 -1.23473,-7.94881 -2.79504,-17.619073 l -2.83691,-17.58231 -0.90913,-0.37149 c -2.97801,-1.2169 -37.59784,-14.33785 -37.83063,-14.33785 -0.30044,0 -14.8685196,29.31513 -14.7449696,29.67108 0.04,0.11523 5.8805296,6.81396 12.9789596,14.886063 12.50532,14.22065 12.9286,14.66928 13.62605,14.44238 0.39589,-0.1288 7.86355,-2.2182 16.5948,-4.64311 z m 29.73153,-5.95726 c 5.91235,-0.59287 10.82011,-1.15841 10.90614,-1.25678 0.086,-0.0984 2.61887,-7.645073 5.62852,-16.770463 l 5.472089,-16.59164 -4.674769,-11.4542 c -2.57112,-6.29981 -4.76583,-11.55661 -4.87714,-11.68178 -0.23449,-0.2637 -29.18038,23.21983 -29.30465,23.77459 -0.0456,0.20345 1.17482,8.10326 2.71198,17.55513 1.53716,9.451883 2.79484,17.256743 2.79484,17.344153 0,0.22655 -0.42308,0.26083 11.34299,-0.91901 z m -67.13154,-36.426763 6.88895,-13.95677 2.37136,-10.28244 c 1.30424,-5.65533 2.32754,-10.32624 2.27399,-10.3798 -0.0864,-0.0864 -5.21239,5.4334 -7.57186,8.15352 -0.70381,0.81139 -2.23077,4.43279 -7.1826596,17.0347 l -6.28884,16.00426 1.22374,3.69165 c 0.67306,2.03041 1.26258,3.69165 1.31006,3.69165 0.0475,0 3.18634,-6.28054 6.9752596,-13.95677 z m 61.47709,-10.12808 c 6.83948,-5.57632 13.35902,-10.90288 14.48786,-11.8368 l 2.05245,-1.69804 -13.15617,-9.91613 c -11.97599,-9.0266 -13.22815,-9.90293 -13.95869,-9.76901 -0.44139,0.0809 -8.65961,1.34439 -18.26272,2.80773 -9.6031,1.46334 -17.53723,2.74499 -17.63139,2.84813 -0.18695,0.20476 -5.25738,22.24624 -5.25738,22.85416 0,0.45499 38.62267,15.34465 39.02604,15.04517 0.14553,-0.10804 5.86053,-4.75888 12.7,-10.33521 z m -26.36336,-4.39403 -7.5466,-7.5466 -2.99783,1.89324 -2.99783,1.89324 -1.29526,-1.29527 -1.29527,-1.29526 1.90134,-1.41385 c 2.71244,-2.01699 3.40881,-3.80427 2.22482,-5.71013 -0.31583,-0.50839 -0.21026,-0.62386 1.52447,-1.66745 1.02509,-0.61668 1.99563,-1.06517 2.15675,-0.99665 0.16112,0.0685 4.87685,4.49118 10.4794,9.82814 5.60255,5.33696 10.28151,9.79342 10.39767,9.90325 0.1653,0.15628 -3.1462,2.80874 -4.70747,3.7706 -0.17684,0.10895 -3.35965,-2.87872 -7.84419,-7.36326 z m 13.81184,-0.007 c -2.50082,-3.38245 -3.03122,-5.85712 -2.14555,-10.01051 1.3184,-6.1827 1.32969,-7.14277 0.10118,-8.60277 -2.10613,-2.50299 -6.04936,-2.61254 -7.83435,-0.21765 -0.65769,0.88241 -0.50098,1.59231 0.6982,3.16283 l 0.90326,1.18296 -2.20807,1.36664 -2.20807,1.36665 -0.93617,-1.09371 c -3.08194,-3.60055 -2.7809,-6.69451 0.88986,-9.14575 4.31482,-2.88133 9.76768,-2.99272 13.71124,-0.28009 3.58987,2.46935 4.18297,4.74125 2.84874,10.91232 -0.66887,3.09366 -0.82559,4.7894 -0.46302,5.0099 0.10914,0.0664 2.35411,-1.40077 4.98883,-3.2603 l 4.79038,-3.38097 2.13731,1.62226 c 1.17552,0.89225 2.05594,1.69513 1.95649,1.78419 -0.61107,0.54719 -15.21273,11.13131 -15.51836,11.24859 -0.24324,0.0933 -0.84427,-0.49107 -1.7119,-1.66459 z"
    />
  </g>
</svg>
