<?xml version="1.0" encoding="UTF-8" standalone="no"?>
<svg version="1.1" viewBox="0 0 200 200" xmlns="http://www.w3.org/2000/svg">
  <g transform="matrix(25.400135,0,0,25.400135,-2805.8253,-423.82564)">
    <path
      style="fill: #000000; stroke-width: 0.0193691"
      d="m 115.03025,24.492457 c -0.0959,-0.01419 -0.80624,-0.113286 -1.57859,-0.220228 -1.66127,-0.230027 -1.51771,-0.207273 -1.56786,-0.248514 -0.05,-0.04113 -1.43435,-4.082744 -1.43435,-4.187642 0,-0.06368 0.0848,-0.152406 1.47097,-1.538932 1.361,-1.361338 1.47577,-1.471308 1.53502,-1.470743 0.0643,6.1e-4 3.36091,0.971032 3.47696,1.023529 0.0341,0.01544 0.0743,0.05238 0.0893,0.08208 0.015,0.0297 0.31681,0.923367 0.67068,1.985933 0.5111,1.534642 0.64076,1.944033 0.63049,1.990753 -0.0105,0.04772 -0.27999,0.291596 -1.42896,1.293027 -0.77883,0.678816 -1.4422,1.253822 -1.47416,1.277791 -0.0668,0.05006 -0.12546,0.05201 -0.38954,0.01295 z m 0.41618,-0.515354 0.20313,-0.177093 -0.49366,0.0127 c -0.27151,0.007 -0.80962,0.01854 -1.19579,0.02569 -0.38617,0.0072 -0.70214,0.01838 -0.70214,0.02497 0,0.0066 0.44235,0.0739 0.983,0.149589 0.54063,0.07569 0.98733,0.138432 0.99266,0.139429 0.005,0.001 0.10109,-0.07788 0.2128,-0.175281 z m -1.21282,-0.325524 c 0.86152,-0.02038 1.56904,-0.03969 1.57226,-0.04292 0.008,-0.0072 -0.0304,-0.04611 -1.67398,-1.735392 -0.72874,-0.748976 -1.33148,-1.354746 -1.33942,-1.346157 -0.008,0.0086 -0.15562,0.708548 -0.32817,1.555465 -0.17256,0.846916 -0.31779,1.557475 -0.32273,1.57902 -0.009,0.03808 -0.002,0.039 0.25832,0.0331 0.14703,-0.0033 0.9722,-0.02275 1.83372,-0.04312 z m 2.31244,-2.274242 c 0.30234,-1.158883 0.54501,-2.111756 0.53927,-2.117499 -0.0177,-0.01771 -4.15685,1.087926 -4.15011,1.108568 0.0116,0.03565 3.0245,3.125489 3.04295,3.120706 0.01,-0.0026 0.26556,-0.952894 0.56789,-2.111775 z m -4.21735,0.466227 c 0.16069,-0.786619 0.28904,-1.439582 0.28522,-1.451032 -0.006,-0.01845 -1.71907,-0.404618 -1.73508,-0.391161 -0.003,0.0029 0.24924,0.755511 0.5617,1.672324 0.3725,1.092953 0.57293,1.655423 0.58206,1.633508 0.008,-0.01838 0.14541,-0.677021 0.3061,-1.463639 z m 4.76773,0.695989 c 0.45091,-0.39317 0.82273,-0.722204 0.82629,-0.731184 0.003,-0.009 -0.15691,-0.506412 -0.35657,-1.105403 -0.26763,-0.802862 -0.36715,-1.079008 -0.3787,-1.050777 -0.009,0.02106 -0.221,0.831463 -0.47197,1.800889 -0.25098,0.969426 -0.46045,1.774217 -0.4655,1.788423 -0.005,0.01421 -8.4e-4,0.02292 0.009,0.01937 0.01,-0.0036 0.38682,-0.328146 0.83773,-0.721317 z m -4.12973,-3.691626 c 0.16137,-0.729733 0.29765,-1.339861 0.30284,-1.355841 0.005,-0.01598 -0.51791,0.497895 -1.16244,1.141943 -0.64453,0.644048 -1.1672,1.175732 -1.16149,1.181518 0.018,0.01827 1.70162,0.381651 1.71497,0.370144 0.007,-0.006 0.14476,-0.608031 0.30612,-1.337764 z m 1.14351,1.000306 c 0.65517,-0.174162 1.56382,-0.415382 2.01924,-0.536046 0.45542,-0.120663 0.82776,-0.224367 0.82745,-0.230451 -4.8e-4,-0.01254 -3.39309,-1.790187 -3.43175,-1.798252 -0.0181,-0.0038 -0.11191,0.387807 -0.34082,1.423633 -0.17367,0.785872 -0.3153,1.435395 -0.31475,1.443385 4.8e-4,0.008 0.0119,0.0145 0.0252,0.01445 0.0134,-3.9e-5 0.56026,-0.142565 1.21542,-0.316726 z m -0.38863,-0.239251 c -0.0201,-0.09523 -0.0189,-0.13076 0.008,-0.235071 0.0175,-0.06758 0.0558,-0.156309 0.0851,-0.197165 0.0293,-0.04085 0.0991,-0.137278 0.15501,-0.214273 0.11048,-0.152105 0.12639,-0.22366 0.0728,-0.327393 -0.0402,-0.0777 -0.10256,-0.116429 -0.18751,-0.116429 -0.15264,0 -0.20692,0.06263 -0.18314,0.21132 l 0.0119,0.07391 -0.13054,0.02833 c -0.15452,0.03354 -0.15843,0.03044 -0.17364,-0.137281 -0.0145,-0.160522 0.0365,-0.252834 0.17813,-0.322129 0.20631,-0.100938 0.47805,-0.0802 0.63314,0.04831 0.0861,0.07135 0.17129,0.235197 0.17103,0.328933 -2.8e-4,0.09562 -0.0721,0.238322 -0.20037,0.398106 -0.12172,0.151591 -0.16986,0.25105 -0.11356,0.234618 0.14751,-0.04306 0.57063,-0.149056 0.57506,-0.144057 0.003,0.0035 0.0287,0.05223 0.0568,0.108377 0.0378,0.07526 0.0448,0.104401 0.0265,0.110876 -0.0136,0.0048 -0.22085,0.06182 -0.46055,0.126637 -0.2397,0.06482 -0.45036,0.122064 -0.46816,0.127212 -0.0259,0.0075 -0.0371,-0.01301 -0.0561,-0.102829 z m 1.2893,-0.25528 c -0.10632,-0.02757 -0.17857,-0.07725 -0.28764,-0.197771 -0.1142,-0.126189 -0.26714,-0.411028 -0.30209,-0.562623 -0.028,-0.121142 -0.0248,-0.281177 0.007,-0.342153 0.0673,-0.130045 0.36082,-0.200646 0.54378,-0.130772 0.17979,0.06866 0.4503,0.440242 0.52261,0.717856 0.0474,0.182133 0.0401,0.304465 -0.0228,0.379164 -0.0908,0.10791 -0.31468,0.174149 -0.46066,0.136299 z m 0.23488,-0.264677 c 0.0303,-0.0462 0.0303,-0.05706 2e-5,-0.165867 -0.0361,-0.130093 -0.17584,-0.417151 -0.25316,-0.5203 -0.0596,-0.07952 -0.11727,-0.115006 -0.18837,-0.11595 -0.16785,-0.0023 -0.18234,0.11424 -0.0516,0.414633 0.0673,0.154722 0.21549,0.388216 0.26441,0.416758 0.0179,0.01045 0.0693,0.01925 0.11442,0.01958 0.0668,4.69e-4 0.0878,-0.0085 0.11426,-0.04885 z m 1.6824,-0.304048 c -0.0149,-0.04528 -0.0664,-0.204594 -0.11471,-0.354041 l -0.0877,-0.271722 -1.25328,-0.37189 c -0.68931,-0.204541 -1.25577,-0.369415 -1.25879,-0.366389 -0.004,0.004 2.71618,1.440243 2.73781,1.445474 0.002,4.69e-4 -0.009,-0.03616 -0.0233,-0.08143 z"
    />
  </g>
</svg>
