<?xml version="1.0" encoding="UTF-8" standalone="no"?>
<svg version="1.1" viewBox="0 0 210 297" xmlns="http://www.w3.org/2000/svg">
  <g transform="matrix(2,0,0,2,-100,-150.5747)">
    <path
      style="fill: #000000; stroke-width: 0.264583"
      d="m 85.599421,203.42045 c -0.237659,-0.1819 -5.97377,-7.8912 -12.746913,-17.13177 -10.643774,-14.52126 -12.315298,-16.92621 -12.31846,-17.72347 -0.0028,-0.70637 4.411705,-9.49761 18.847903,-37.53452 17.023987,-33.062721 18.933556,-36.651781 19.697406,-37.021441 1.988293,-0.96223 0.65705,-2.61162 22.913403,28.389491 38.73927,53.96035 36.16888,50.30426 36.16888,51.44603 0,0.7992 -0.16508,1.15869 -0.76315,1.66193 -0.99035,0.83333 -69.469571,28.24675 -70.557636,28.24545 -0.44513,-5.3e-4 -1.003774,-0.1498 -1.241433,-0.3317 z m 35.063209,-18.25381 c 17.13821,-6.86929 31.11292,-12.61192 31.05492,-12.7614 -0.23575,-0.60759 -50.78861,-70.78872 -50.90598,-70.67135 -0.0698,0.0698 -2.829623,21.747 -6.132852,48.17148 -5.032156,40.25524 -5.938629,48.02071 -5.59116,47.89771 0.228089,-0.0807 14.436872,-5.76714 31.575072,-12.63644 z m -0.58641,-15.16159 c -0.63883,-2.11653 -1.26365,-3.91136 -1.38851,-3.98852 -0.12485,-0.0772 -2.79128,0.71442 -5.9254,1.75908 -3.13412,1.04466 -5.76726,1.83051 -5.85143,1.74635 -0.21125,-0.21126 -1.38885,-5.44789 -1.39574,-6.20667 -0.005,-0.54328 4.93811,-21.21683 5.1153,-21.39402 0.0383,-0.0383 1.27342,-0.35418 2.74462,-0.70187 l 2.67491,-0.63216 1.4606,4.26374 c 5.23108,15.27043 4.60269,14.02933 6.72429,13.28078 l 1.06476,-0.37566 0.96588,2.52344 c 0.53123,1.38789 0.93026,2.55292 0.88673,2.58895 -0.0435,0.036 -0.70421,0.26973 -1.4682,0.51933 -0.76398,0.24959 -1.38906,0.55237 -1.38906,0.67283 0,0.12046 0.59764,1.91435 1.32808,3.98642 0.73044,2.07207 1.29201,3.80347 1.24793,3.84755 -0.17286,0.17285 -5.02149,1.95864 -5.31795,1.95864 -0.17633,0 -0.82727,-1.6962 -1.47681,-3.84821 z m -5.9385,-8.82694 2.93962,-0.95089 -2.04621,-6.59786 c -1.27704,-4.11774 -2.10386,-6.40524 -2.19958,-6.08542 -0.2151,0.7187 -2.82408,14.24626 -2.82408,14.64287 0,0.2174 0.19714,0.26164 0.59532,0.13361 0.32742,-0.10529 1.91814,-0.61933 3.53493,-1.14231 z m -22.135932,-9.96154 c 3.03776,-24.29383 5.499169,-44.19529 5.469799,-44.22548 -0.0445,-0.0457 -11.0623,21.27903 -28.137114,54.45875 l -3.499043,6.79932 10.242407,13.9801 c 5.633326,7.68906 10.278036,13.79511 10.321578,13.56901 0.04354,-0.2261 2.564612,-20.28787 5.602373,-44.5817 z"
    />
  </g>
</svg>
