<?xml version="1.0" encoding="UTF-8" standalone="no"?>
<svg version="1.1" viewBox="0 0 210 297" xmlns="http://www.w3.org/2000/svg">
  <g transform="matrix(2,0,0,2,-100,-100.5747)">
    <path
      style="fill: #000000; stroke-width: 0.264583"
      d="m 103.4783,175.85485 c -1.24355,-0.7301 -45.816988,-32.87048 -46.526188,-33.54843 l -0.77145,-0.73747 -0.64918,-19.46536 c -0.50748,-15.21674 -0.58086,-19.6239 -0.33617,-20.19169 0.21505,-0.49902 6.97735,-5.731617 21.60844,-16.720387 18.13281,-13.618749 21.42516,-15.994059 22.16891,-15.994059 0.66944,0 2.195888,0.844597 6.535098,3.615939 30.58494,19.53378 41.16178,26.3936 41.59994,26.98047 0.51166,0.685307 0.51057,0.842267 -0.1386,19.902997 -0.61256,17.98545 -0.68672,19.25259 -1.1614,19.84403 -0.38377,0.47817 -21.96856,20.23702 -38.93188,35.63849 -1.19551,1.08544 -2.31885,1.30878 -3.39752,0.67547 z m -0.11411,-22.66194 V 136.80545 L 90.068872,127.4808 c -7.31242,-5.12855 -17.01999,-11.9385 -21.57238,-15.13321 -4.55239,-3.19471 -8.31777,-5.76293 -8.36752,-5.70716 -0.0497,0.0558 0.14712,7.36421 0.43746,16.24098 0.46111,14.09756 0.58247,16.19539 0.95918,16.58067 0.38177,0.39044 41.606628,30.11224 41.772428,30.11657 0.0364,10e-4 0.0661,-7.37263 0.0661,-16.38574 z m 20.73486,-0.41359 c 9.3919,-8.58573 17.13475,-15.84854 17.20632,-16.13958 0.0716,-0.29104 0.31615,-6.48229 0.54349,-13.75833 0.22735,-7.27604 0.48378,-14.2253 0.56983,-15.4428 0.10165,-1.43816 0.0632,-2.17967 -0.10991,-2.11667 -0.1465,0.0533 -3.70046,3.08737 -7.89767,6.74231 -4.19722,3.65493 -12.3045,10.71535 -18.0162,15.68982 l -10.38489,9.04448 v 16.1586 c 0,15.86676 0.009,16.15204 0.50642,15.7956 0.27853,-0.19965 8.19071,-7.38769 17.58261,-15.97343 z m -0.86963,-34.2559 c 10.18196,-8.87257 18.53138,-16.22468 18.55427,-16.33802 0.0229,-0.11334 -2.93461,-2.11108 -6.57223,-4.439407 -3.63761,-2.32833 -13.16536,-8.43028 -21.17279,-13.55989 -8.00742,-5.12961 -14.679918,-9.32657 -14.827778,-9.32657 -0.3788,0 -38.31233,28.577227 -38.31233,28.862597 0,0.18986 43.463708,30.9286 43.737228,30.93218 0.0445,5.3e-4 8.41167,-7.25832 18.59363,-16.13089 z m -18.05796,-1.5858 c -3.82329,-1.20192 -7.078578,-3.32334 -11.473958,-7.47739 -4.19807,-3.96758 -6.0529,-7.30119 -6.03116,-10.839567 0.0139,-2.26347 0.89798,-4.15945 2.74515,-5.88727 1.93736,-1.81217 3.36539,-2.38701 5.94124,-2.39156 1.75886,-0.003 2.37821,0.11874 3.663888,0.72085 l 1.54722,0.7246 -0.72047,0.86269 c -2.176138,2.60566 -2.777628,3.12664 -3.292018,2.85134 -1.35338,-0.72431 -3.51622,-0.0616 -4.33776,1.32918 -1.04695,1.77234 -0.31384,3.896137 2.32753,6.742817 l 1.71249,1.8456 0.0126,-1.52985 c 0.0154,-1.87254 0.45142,-2.97058 1.75067,-4.408697 1.653688,-1.83043 3.028908,-2.47704 5.549588,-2.60934 1.75296,-0.092 2.51802,-7.9e-4 3.92734,0.46819 3.18868,1.06112 6.21788,3.806177 7.89415,7.153657 0.7555,1.50872 0.86154,1.97956 0.86403,3.83645 0.002,1.80977 -0.11001,2.34685 -0.77546,3.70417 -2.19849,4.48422 -6.58616,6.3876 -11.30505,4.90413 z m 4.52435,-5.15921 c 0.412,-0.21305 1.07366,-0.7731 1.47036,-1.24455 0.62499,-0.74276 0.70636,-1.03539 0.60958,-2.19231 -0.28207,-3.37208 -4.9063,-6.88827 -7.88519,-5.99577 -1.2204,0.36564 -2.25766,1.37625 -2.65821,2.58992 -1.19922,3.63367 4.99094,8.63842 8.46346,6.84271 z"
    />
  </g>
</svg>
