<?xml version="1.0" encoding="UTF-8" standalone="no"?>
<svg version="1.1" viewBox="0 0 412 407" xmlns="http://www.w3.org/2000/svg">
  <g transform="matrix(3.7795276,0,0,3.7795276,-217.13792,-233.5747)">
    <path
      style="fill: #000000; stroke-width: 0.264583"
      d="m 99.137286,157.03617 c -43.68518,-13.67278 -41.671873,-12.95778 -41.671873,-14.79914 0,-0.57584 15.545242,-51.832648 23.170583,-76.399588 1.02951,-3.31684 1.5627,-4.03747 2.98726,-4.03747 0.80131,0 17.325024,4.83621 69.480194,20.33566 12.90459,3.83498 13.14633,3.93208 13.5157,5.42853 0.11521,0.46678 -23.01494,78.218488 -24.00037,80.676928 -0.32876,0.82019 -1.45549,1.52068 -2.39179,1.48698 -0.33465,-0.012 -18.82501,-5.7234 -41.089704,-12.6919 z m 50.437154,-29.10604 c 5.93336,-19.70945 10.764,-35.902288 10.73476,-35.984078 -0.0453,-0.12674 -12.23112,7.06889 -54.52278,32.195278 l -7.373784,4.38093 0.89149,0.75039 c 0.49032,0.41272 9.463994,8.36905 19.941494,17.68073 10.4775,9.31169 19.16046,16.90374 19.29546,16.87123 0.13499,-0.0325 5.10001,-16.18503 11.03336,-35.89448 z m -16.96736,34.28919 c 0,-0.0673 -7.82836,-7.04925 -17.39635,-15.5155 -9.568,-8.46625 -17.779104,-15.75283 -18.246894,-16.19239 l -0.85053,-0.7992 -15.26194,5.79119 -15.261932,5.7912 1.560385,0.49567 c 0.858213,0.27263 15.907417,4.99319 33.442681,10.49014 17.53526,5.49695 31.91206,10.00948 31.94844,10.02783 0.0364,0.0184 0.0661,-0.0217 0.0661,-0.0889 z M 79.230596,133.47584 c 8.47483,-3.21588 15.46156,-5.89796 15.52607,-5.96018 0.0645,-0.0622 -2.31603,-12.54479 -5.2901,-27.739028 -2.97408,-15.19425 -5.48261,-27.48427 -5.57454,-27.31118 -0.0919,0.1731 -4.54145,14.60223 -9.887845,32.064728 -5.346395,17.4625 -9.932609,32.43461 -10.191583,33.27135 -0.258974,0.83675 -0.362842,1.52136 -0.230815,1.52136 0.132027,0 7.173998,-2.63117 15.648813,-5.84705 z m 36.575444,-18.15953 c 38.63165,-22.862258 43.2414,-25.611968 43.31504,-25.837348 0.0421,-0.129 -12.66306,-4.029 -28.23379,-8.66667 -15.57073,-4.63766 -32.059804,-9.55367 -36.642384,-10.92445 -4.58258,-1.37079 -8.37778,-2.44653 -8.43377,-2.39053 -0.0793,0.0793 8.04314,42.018658 10.86778,56.114358 0.53909,2.69017 0.56563,2.74759 1.10847,2.39757 0.30588,-0.19723 8.414284,-5.00905 18.018654,-10.69293 z m -0.71974,-9.95289 c -2.94012,-1.06543 -5.1473,-2.93787 -6.40665,-5.435018 -1.01638,-2.01536 -1.08862,-3.39928 -0.28119,-5.38624 0.15439,-0.37993 0.0456,-0.46302 -0.60604,-0.46302 -1.52874,0 -4.12356,-1.02045 -5.64286,-2.21915 -3.565294,-2.81291 -3.887914,-7.34805 -0.71587,-10.0632 1.67948,-1.43757 4.43095,-2.75187 6.50594,-3.10769 4.48244,-0.76865 8.85115,1.25601 10.6664,4.94331 0.82248,1.67069 0.91005,2.53421 0.38986,3.8445 -0.13274,0.33434 0.20666,0.4624 1.85482,0.69984 4.1522,0.59819 8.19225,3.53314 9.25091,6.72046 1.33339,4.01448 -0.73997,7.506008 -5.92768,9.982158 -1.75528,0.83782 -2.21947,0.94105 -4.63021,1.02977 -2.32911,0.0857 -2.91179,0.0144 -4.45743,-0.54572 z m 7.22776,-4.95482 c 1.71572,-0.861938 2.32737,-2.741048 1.44661,-4.444258 -0.50404,-0.9747 -2.36971,-2.6387 -3.47744,-3.10154 -2.12802,-0.88914 -5.08106,-0.0293 -6.03805,1.75803 -0.71736,1.3398 -0.41449,2.63247 0.96827,4.13258 2.19448,2.380738 4.55919,2.931958 7.10061,1.655188 z M 112.15785,89.818712 c 2.23392,-1.08143 2.4813,-3.14891 0.59572,-4.9788 -2.03311,-1.97306 -4.658,-2.02092 -6.55932,-0.11961 -0.81349,0.81349 -0.89201,1.01828 -0.76202,1.98741 0.17219,1.2838 1.17503,2.45919 2.70089,3.16565 1.39078,0.64391 2.61607,0.62727 4.02473,-0.0547 z"
    />
  </g>
</svg>
