<?xml version="1.0" encoding="UTF-8" standalone="no"?>
<!-- Created with Inkscape (http://www.inkscape.org/) -->

<svg
   viewBox="0 0 31.999999 32"
   version="1.1"
   id="svg1"
   xmlns="http://www.w3.org/2000/svg">
  <defs
     id="defs1" />
  <g
     id="layer1"
     transform="translate(-87.773185,-162.08513)">
    <path
       d="m 103.63203,189.35157 c -0.77363,-0.88112 -1.83968,-3.30102 -2.0463,-4.64505 -0.4437,-2.88616 -0.28565,-2.62822 -2.112765,-3.44799 -1.95879,-0.87885 -3.84202,-2.51087 -4.81688,-4.17435 -0.49876,-0.85107 -2.71988,-7.10595 -2.72022,-7.66038 -1.3e-4,-0.21394 3.56144,-1.79657 5.49734,-2.44281 2.719955,-0.90798 7.593895,-1.94019 8.219415,-1.74072 0.54336,0.17327 1.21687,2.39583 1.6635,5.48949 l 0.33234,2.30195 1.52534,0.57044 c 1.88485,0.70489 5.22488,2.86972 6.18136,4.00643 0.92357,1.0976 0.81261,1.97822 -0.63125,5.00956 -1.3971,2.93318 -2.94781,4.66052 -5.16298,5.75104 -1.58716,0.78136 -4.48084,1.88675 -4.93911,1.88675 -0.10766,0 -0.55307,-0.40696 -0.98979,-0.90436 z m 4.63126,-2.01933 c 2.06499,-1.00949 3.659,-2.78822 5.2419,-5.84932 l 1.18453,-2.29071 -1.30358,-1.17203 c -1.71285,-1.53999 -6.53184,-3.88728 -8.00669,-3.89999 -0.43756,-0.004 -1.19024,2.02884 -2.08451,5.62926 -0.51206,2.06159 -0.2016,4.85218 0.77108,6.93074 0.82395,1.76075 0.85094,1.78657 1.69573,1.62226 0.47215,-0.0918 1.59784,-0.52842 2.50154,-0.97021 z m -2.47747,-1.16421 c -1.14271,-0.49717 -2.20832,-2.12906 -2.20832,-3.38185 0,-1.06084 0.45531,-1.32664 1.04839,-0.61203 0.50404,0.60734 2.41161,1.64148 3.71411,2.01351 2.17454,0.62112 2.44134,1.27712 0.7884,1.9385 -1.28431,0.51388 -2.23045,0.52573 -3.34258,0.0419 z M 108.34,185.1932 c -0.3638,-0.14543 -1.34607,-0.59847 -2.18281,-1.00675 -0.83675,-0.40828 -1.52136,-0.65102 -1.52136,-0.53941 0,0.11161 0.34543,0.5727 0.76761,1.02466 0.67981,0.72774 0.92949,0.81968 2.18282,0.80382 1.21699,-0.0154 1.32256,-0.0549 0.75374,-0.28232 z m 3.02043,-2.98625 c -0.2953,-0.20683 -0.94687,-0.48229 -1.44794,-0.61213 -0.94081,-0.24379 -1.13265,-0.66398 -0.37491,-0.82118 0.68886,-0.14291 1.68308,0.19212 2.24873,0.75777 0.90743,0.90742 0.60042,1.39439 -0.42588,0.67554 z m -4.07876,-1.71903 c 0,-0.4038 -1.73419,-1.34449 -2.47863,-1.34449 -0.46759,0 -0.69637,-0.14184 -0.69637,-0.43171 0,-0.76799 2.02653,-0.28862 3.07471,0.72731 0.97553,0.94552 1.10883,1.2919 0.49716,1.2919 -0.21828,0 -0.39687,-0.10935 -0.39687,-0.24301 z m -4.90594,-1.91865 c 0.22342,-0.75236 0.36777,-1.40637 0.32076,-1.45338 -0.047,-0.047 -0.83013,0.16603 -1.74029,0.47339 -2.020895,0.68247 -2.471345,0.45342 -1.815015,-0.9229 0.47328,-0.99248 2.689075,-2.28545 3.916625,-2.28545 0.4892,0 0.78989,-0.19876 1.00071,-0.66146 0.3012,-0.66106 0.53772,-0.76877 1.47048,-0.66966 0.45321,0.0482 0.48016,-0.0813 0.31049,-1.49089 -0.21539,-1.7894 -0.64987,-3.72661 -0.98241,-4.38023 -0.2656,-0.52206 -0.55072,-0.4899 -4.42117,0.49866 -2.616545,0.66829 -6.647995,2.15826 -6.647995,2.45699 0,0.31847 1.5912,4.54461 2.03221,5.39745 1.03122,1.99418 2.50449,3.31068 4.502465,4.02335 1.51393,0.54 1.61431,0.4918 2.05314,-0.98587 z m -6.206565,-4.43241 c 0,-0.13423 0.41974,-0.38259 0.93276,-0.5519 0.51302,-0.16931 1.278,-0.59834 1.69995,-0.95339 0.89588,-0.75383 1.402925,-0.37837 0.63497,0.4702 -0.92894,1.02647 -3.26768,1.76731 -3.26768,1.03509 z m 5.490105,-2.15838 c -0.85134,-0.49586 -0.47838,-0.64026 1.65365,-0.64026 1.16416,0 2.11666,0.0851 2.11666,0.18913 0,0.66239 -2.82687,1.00064 -3.77031,0.45113 z m 0.5809,4.29557 c 1.201,-0.57691 1.41422,-1.16037 0.30812,-0.84314 -1.00493,0.28821 -2.41037,1.10811 -2.41037,1.40614 0,0.26783 0.84219,0.0423 2.10225,-0.563 z"
       style="fill:#000000"
       id="path1" />
  </g>
</svg>
