<?xml version="1.0" encoding="UTF-8" standalone="no"?>
<!-- Created with Inkscape (http://www.inkscape.org/) -->

<svg
   viewBox="0 0 31.999999 32"
   version="1.1"
   id="svg1"
   xmlns="http://www.w3.org/2000/svg">
  <defs
     id="defs1" />
  <g
     id="layer1"
     transform="translate(-87.773185,-162.08513)">
    <path
       d="m 103.49839,187.81685 c 0,-0.46871 -2.48661,-2.9876 -4.069772,-4.12261 -2.396708,-1.71826 -3.722438,-3.20454 -4.916048,-5.51139 -0.84749,-1.63791 -1.06804,-2.34898 -1.06687,-3.43958 0.004,-3.62318 1.69971,-5.79239 5.10068,-6.52455 1.59213,-0.34275 3.3834,0.0212 4.75357,0.96579 l 0.99219,0.68402 0.99219,-0.68402 c 3.03717,-2.09386 7.54004,-0.96152 9.2568,2.32781 0.67045,1.28458 0.54276,3.99916 -0.27181,5.7784 -0.97978,2.14014 -1.76225,3.06432 -4.97906,5.88084 -1.57143,1.3759 -3.22552,3.03704 -3.67576,3.69144 -0.59442,0.86396 -0.99629,1.18981 -1.46736,1.18981 -0.35681,0 -0.64875,-0.10618 -0.64875,-0.23596 z m 9.08819,-11.2544 c 0.62374,-1.8619 0.57475,-3.87333 -0.11572,-4.75111 -1.39653,-1.77541 -3.7921,-2.06629 -6.10743,-0.74159 -0.81083,0.46392 -1.75741,0.84044 -2.1035,0.83671 -0.34609,-0.004 -1.27858,-0.42044 -2.0722,-0.92604 -1.20232,-0.76597 -1.68766,-0.91911 -2.91041,-0.91828 -1.78814,0.001 -2.91808,0.61715 -3.54125,1.93036 -1.60255,3.37714 -0.20698,6.27697 5.17727,10.75772 1.41588,1.17829 2.69283,2.36377 2.83767,2.63441 0.23191,0.43333 0.74891,0.014 4.33106,-3.5131 3.44262,-3.3897 4.13483,-4.20555 4.50451,-5.30908 z m -8.9559,4.64468 c -0.71107,-0.15094 -0.80753,-0.29213 -0.92604,-1.35539 -0.10358,-0.9293 -0.24714,-1.20401 -0.66146,-1.26572 -1.75452,-0.26131 -1.75322,-0.26008 -1.66779,-1.58815 0.0797,-1.23869 0.0883,-1.24919 1.12893,-1.38047 0.91867,-0.1159 1.0692,-0.23353 1.21455,-0.94914 0.26161,-1.288 0.48872,-1.5035 1.39377,-1.32249 0.91273,0.18255 1.22782,0.54071 1.23378,1.40242 0.005,0.66621 0.70837,1.13379 1.70645,1.13379 0.64646,0 0.67885,0.0694 0.67885,1.45521 v 1.45521 h -1.02424 -1.02425 l -0.17549,1.32291 c -0.18736,1.41234 -0.23542,1.4403 -1.87706,1.09182 z"
       style="fill:#000000"
       id="path1" />
  </g>
</svg>
