<?xml version="1.0" encoding="UTF-8" standalone="no"?>
<!-- Created with Inkscape (http://www.inkscape.org/) -->

<svg
   viewBox="0 0 31.999999 32"
   version="1.1"
   id="svg1"
   xmlns="http://www.w3.org/2000/svg">
  <defs
     id="defs1" />
  <g
     id="layer1"
     transform="translate(-87.773185,-162.08513)">
    <path
       d="m 106.62967,190.56448 c 0.0984,-0.48494 0.15907,-0.65594 0.715,-1.46313 1.38245,-2.00724 1.5125,-3.81483 0.49092,-6.82314 -0.54201,-1.59606 -0.75915,-2.86503 -0.88285,-5.15937 -0.15915,-2.95156 -0.32881,-3.70417 -0.83504,-3.70417 -0.64213,0 -1.07636,1.40894 -1.31416,4.26409 -0.3743,4.49391 -0.51035,5.26091 -0.93321,5.26091 -0.30203,0 -0.34218,-0.39158 -0.21254,-2.07282 0.14884,-1.93 0.0921,-2.2627 -0.82337,-4.82865 -0.88884,-2.49129 -0.97797,-2.9844 -0.92851,-5.13707 0.0961,-4.18349 -0.0358,-5.68855 -0.49851,-5.68855 -0.2458,0 -1.37016,6.58895 -1.35618,7.94747 0.005,0.50384 0.18191,1.63045 0.39275,2.50358 0.44217,1.83122 0.5042,3.30729 0.13899,3.30729 -0.13893,0 -0.33245,-0.42561 -0.43004,-0.9458 -0.242978,-1.29519 -0.729878,-0.7589 -0.706638,0.77832 0.0121,0.79724 0.38371,1.97479 1.151648,3.64886 1.04468,2.27739 1.13501,2.64858 1.14875,4.7207 0.0105,1.58757 -1.3431,3.30656 -0.4617,3.41277 2.72999,0.32896 4.11556,-0.0884 5.34469,-0.0213 z m -7.566248,0.84189 c -0.381417,-0.12213 1.096988,-2.75587 1.103348,-4.36563 0.006,-1.599 -0.13205,-2.15424 -1.012538,-4.06333 -1.21464,-2.63356 -1.50425,-4.68786 -0.87366,-6.19707 0.30298,-0.72513 0.37452,-1.45421 0.26149,-2.66467 -0.16134,-1.72776 0.20141,-5.07854 0.88605,-8.18461 0.46579,-2.11318 1.215038,-2.86368 2.344928,-2.34887 0.821,0.37407 1.70606,1.80217 1.70736,2.7549 5.4e-4,0.40019 0.0349,0.72761 0.0763,0.72761 0.0414,0 0.72604,-0.22713 1.52136,-0.50474 2.90157,-1.01279 4.48874,-0.69361 4.48874,0.90268 0,0.39174 0.19677,0.68718 0.5276,0.79219 0.85511,0.2714 1.32449,0.90759 1.32449,1.79519 0,0.66824 -0.28967,1.10044 -1.47998,2.2082 -1.17425,1.09283 -1.44384,1.49118 -1.30508,1.92837 0.18402,0.5798 0.34372,0.63756 1.54208,0.55767 1.02543,-0.0684 2.03673,0.64936 2.03673,1.44545 0,0.79848 -1.23555,2.24379 -2.50047,2.92499 -0.64749,0.3487 -0.89724,0.63731 -0.78829,0.91093 0.0877,0.22029 0.41164,1.501 0.71984,2.84603 0.72611,3.16877 -0.33039,4.75324 -0.97281,7.20403 -0.58131,2.21766 -5.45606,2.65997 -9.607488,1.33068 z m 10.320688,-14.1512 c 1.13742,-0.47525 1.64638,-1.09973 0.68709,-0.84305 -0.35018,0.0937 -1.02364,0.17198 -1.49658,0.17397 -0.68231,0.003 -0.8599,0.1129 -0.8599,0.53278 0,0.6311 0.40585,0.66424 1.66939,0.1363 z m -5.11332,-3.21253 c 0.70164,-0.97701 1.28488,-1.40868 2.88912,-2.13829 2.03977,-0.92768 2.93606,-1.53924 2.93606,-2.00332 0,-0.14115 -0.32742,-0.19047 -0.7276,-0.10959 -1.39753,0.28244 -5.14253,1.83896 -5.81379,2.41635 -0.61074,0.52534 -0.65866,0.70298 -0.49107,1.82057 0.10215,0.68113 0.21777,1.23842 0.25694,1.23842 0.0392,0 0.46683,-0.55086 0.95034,-1.22414 z m 1.77156,-4.96116 c 2.27737,-1.13642 1.99155,-1.57751 -0.59944,-0.92509 -1.60452,0.40402 -2.75527,1.50664 -2.75527,2.64003 v 0.87359 l 0.99218,-0.95237 c 0.54571,-0.5238 1.60884,-1.26007 2.36253,-1.63616 z"
       style="fill:#000000"
       id="path1" />
  </g>
</svg>
