<?xml version="1.0" encoding="UTF-8" standalone="no"?>
<!-- Created with Inkscape (http://www.inkscape.org/) -->

<svg
   viewBox="0 0 31.999999 32"
   version="1.1"
   id="svg1"
   xmlns="http://www.w3.org/2000/svg">
  <defs
     id="defs1" />
  <g
     id="layer1"
     transform="translate(-87.773185,-162.08513)">
    <path
       d="m 111.8813,189.7659 -0.93044,-1.35167 c -1.15679,-1.44431 -1.82847,-3.58644 -1.60074,-5.10505 0.0919,-0.61274 0.74344,-2.09338 1.4479,-3.29031 2.35975,-4.0094 2.68588,-6.55446 1.19169,-9.29977 -3.25391,-5.97851 -11.67348,-6.87473 -14.42014,-1.53494 -0.38333,0.74524 -0.50494,1.5379 -0.50494,3.29139 0,2.23612 -0.0346,2.36702 -1.08583,4.10685 l -1.08583,1.79712 0.68896,0.81878 c 0.40211,0.47788 0.68895,1.14434 0.68895,1.60072 0,0.43007 0.1786,1.20939 0.39688,1.73181 0.21828,0.52242 0.39687,1.23591 0.39687,1.58555 0,0.44846 0.21431,0.71908 0.72761,0.91881 0.95321,0.37091 6.35549,0.17008 7.16113,-0.26621 0.33698,-0.1825 0.83876,-0.85922 1.11508,-1.50382 0.62061,-1.44784 1.18504,-1.57537 0.96477,-0.21799 -0.31308,1.92927 -1.43587,2.82464 -3.94932,3.14936 -1.09652,0.14167 -1.25677,0.24161 -1.25677,0.78386 0,0.58716 -1.51016,2.75536 -2.46958,3.54567 l -2.15022,-0.23084 c -0.09497,-0.29213 0.94834,-0.67283 1.69993,-1.49519 1.4767,-1.61575 1.44445,-1.93268 -0.19744,-1.94034 -1.43104,-0.007 -2.66242,-0.65942 -2.84471,-1.50797 -0.088,-0.40977 -0.31978,-1.22129 -0.51499,-1.80337 -0.19521,-0.58208 -0.4344,-1.53458 -0.53153,-2.11667 -0.0971,-0.58208 -0.48109,-1.37937 -0.85325,-1.77175 -0.84644,-0.89242 -0.7161,-1.81996 0.50517,-3.59502 0.78797,-1.14528 0.86646,-1.45475 1.02017,-4.0224 0.23857,-3.98526 1.12013,-5.47484 4.13045,-6.97925 4.92545,-2.4615 11.22909,-0.20471 13.94171,4.99134 0.75852,1.45295 0.82891,1.80054 0.8304,4.10104 0.002,2.70149 -0.0532,2.85873 -2.77397,7.9375 -0.70852,1.32257 -0.75679,1.57062 -0.52957,2.7214 0.27742,1.40505 2.23249,2.82238 2.25955,3.6286 m -6.16985,-8.57169 c -0.15893,-0.3488 -0.74358,-0.97162 -1.29924,-1.38403 -0.90499,-0.67169 -1.69782,-1.44221 -2.48344,-2.41355 -0.14713,-0.1819 -0.62915,-0.33073 -1.07117,-0.33073 -0.53814,0 -1.06295,-0.25928 -1.58843,-0.78476 -0.43161,-0.43161 -1.10598,-0.93871 -1.49859,-1.12689 -0.39261,-0.18817 -0.88167,-0.69231 -1.08681,-1.12032 -0.33344,-0.69569 -0.31966,-0.87777 0.12988,-1.71738 0.34995,-0.65359 0.71495,-0.96376 1.20032,-1.02 0.54351,-0.063 0.73402,-0.26356 0.86304,-0.90868 0.30182,-1.50911 1.64718,-2.31158 2.47968,-1.47908 0.23635,0.23635 0.55268,0.22931 1.33765,-0.0298 1.13704,-0.37525 1.97755,-0.1141 2.64082,0.82052 0.21889,0.30844 0.67292,0.48717 1.23757,0.48717 1.02963,0 1.83949,0.83201 2.13682,2.19524 0.10166,0.46611 0.46708,1.18403 0.81205,1.59538 1.43722,1.7138 0.44828,3.89122 -1.59336,3.50821 -0.7712,-0.14468 -1.01794,-0.0509 -1.72443,0.65562 l -0.82445,0.82445 0.66493,0.79023 c 0.71249,0.84675 0.89615,2.07254 0.31052,2.07254 -0.19492,0 -0.48443,-0.28538 -0.64336,-0.63419 z m -0.203,-3.6913 c 0.73197,-0.53523 0.25748,-0.96618 -1.06381,-0.96618 -1.24458,0 -1.43676,0.22962 -0.75923,0.90715 0.51003,0.51003 1.17673,0.53162 1.82304,0.059 z m 3.58202,-1.70936 c 0,-0.98184 -0.58949,-1.77306 -1.15837,-1.55476 -0.61419,0.23568 -0.76178,0.76155 -0.44648,1.59086 0.19341,0.5087 0.45626,0.70708 0.93684,0.70708 0.55574,0 0.66801,-0.1249 0.66801,-0.74318 z m -4.29875,-0.12661 c 1.46674,-0.0281 1.63721,-0.0858 1.50292,-0.5089 -0.0999,-0.3148 0.12495,-0.75363 0.66072,-1.28941 0.92327,-0.92326 0.97941,-1.20875 0.40031,-2.03552 -0.4847,-0.69202 -1.82821,-0.80835 -2.06963,-0.17922 -0.0863,0.22485 -0.58305,0.58688 -1.10391,0.80451 -0.84431,0.35278 -1.03555,0.35154 -1.76315,-0.0114 -0.58559,-0.29213 -0.91169,-0.32783 -1.15442,-0.12638 -0.18606,0.15441 -1.03142,0.24348 -1.87858,0.19793 -1.5096,-0.0812 -1.54198,-0.0682 -1.62452,0.64996 -0.0705,0.61337 0.0589,0.79334 0.79375,1.10444 0.78978,0.33434 0.93112,0.32386 1.40713,-0.1044 0.93973,-0.84543 1.72707,-1.1102 3.08676,-1.03804 1.02742,0.0545 1.38935,-0.0319 1.58312,-0.37819 0.4035,-0.72101 1.00191,-0.54797 0.96394,0.27873 -0.0184,0.40018 0.0587,0.93596 0.17125,1.19062 0.24383,0.5516 -0.42224,0.6547 -0.85466,0.13229 -0.18038,-0.21791 -0.81841,-0.30039 -1.87044,-0.24179 -1.24433,0.0693 -1.74903,0.23013 -2.28707,0.72877 -0.97137,0.90024 -0.62438,1.25148 1.02318,1.03569 0.74741,-0.0979 2.10339,-0.19223 3.0133,-0.20965 z m -3.80884,-4.28958 c 0.21828,-0.21828 0.56939,-0.39688 0.78025,-0.39688 0.21086,0 0.5316,0.1786 0.71275,0.39688 0.70007,0.84353 2.27681,0.22053 2.07237,-0.81883 -0.17012,-0.86493 -0.92449,-1.06952 -1.93566,-0.52497 -0.86695,0.46689 -0.96216,0.47108 -1.41385,0.0623 -0.65924,-0.59659 -1.01233,-0.55047 -1.20193,0.15702 -0.38899,1.45154 0.10064,2.00991 0.98607,1.12448 z"
       style="fill:#000000"
       id="path1" />
  </g>
</svg>
