<?xml version="1.0" encoding="UTF-8" standalone="no"?>
<!-- Created with Inkscape (http://www.inkscape.org/) -->

<svg
   viewBox="0 0 31.999999 32"
   version="1.1"
   id="svg1"
   xmlns="http://www.w3.org/2000/svg">
  <defs
     id="defs1" />
  <g
     id="layer1"
     transform="translate(-87.773185,-162.08513)">
    <path
       d="m 112.32566,189.56137 c -24.552475,-27.47624 -24.552475,-27.47624 0,0 z m -1.72516,-2.56377 c -0.14552,-0.0513 -1.37838,-0.21292 -2.73968,-0.35913 -1.93886,-0.20824 -2.6554,-0.40333 -3.30729,-0.90044 -0.45771,-0.34903 -1.6061,-0.97099 -2.55199,-1.38214 -1.71719,-0.7464 -2.579112,-0.84042 -5.60284,-0.61115 -1.642607,0.12454 -2.434548,-0.485 -3.643439,-2.80428 -0.820069,-1.57332 -0.940181,-2.04424 -0.940181,-3.68617 0,-1.18492 0.177929,-2.34353 0.480196,-3.12686 0.547778,-1.41959 2.022396,-2.8566 2.931349,-2.8566 0.338254,0 1.284361,-0.35719 2.102461,-0.79375 0.969165,-0.51717 1.871821,-0.79375 2.590561,-0.79375 0.651373,0 1.679563,-0.28203 2.510793,-0.68872 1.16691,-0.57091 1.62397,-0.65908 2.6722,-0.51546 0.69549,0.0953 2.05016,0.20111 3.01038,0.23515 2.14006,0.0759 2.8802,0.51699 3.71157,2.21208 0.53,1.08061 0.63769,1.76408 0.7206,4.57311 0.0867,2.93786 0.15582,3.34349 0.6257,3.67261 1.78446,1.24989 1.57969,5.36024 -0.35268,7.07911 -0.62758,0.55826 -1.71416,0.92395 -2.21771,0.74639 z m 1.5807,-2.48446 c 0.58645,-1.13407 0.53423,-3.51714 -0.0894,-4.08156 -0.46296,-0.41897 -0.54375,-0.41744 -1.32124,0.0251 -0.9653,0.54949 -1.03165,0.76909 -0.30231,1.00057 0.29105,0.0924 0.52917,0.27605 0.52917,0.40816 0,0.13768 -0.29718,0.12722 -0.69623,-0.0245 -1.75141,-0.66589 -2.93192,-0.7779 -3.77353,-0.35804 -1.31885,0.65792 -1.82828,2.29167 -0.94355,3.02593 0.41261,0.34244 2.65809,0.68252 4.9435,0.74871 1.13275,0.0328 1.28783,-0.037 1.65364,-0.74441 z m -7.86916,-1.78527 c 0.052,-0.15612 -0.2977,-0.33799 -0.77721,-0.40415 -0.47951,-0.0662 -0.99089,-0.16911 -1.13642,-0.22878 -0.14552,-0.0597 -0.29256,0.0106 -0.32676,0.1561 -0.0641,0.27276 1.45635,0.93143 1.89773,0.82211 0.13642,-0.0338 0.29062,-0.18916 0.34266,-0.34528 z m -6.924266,-1.20443 c -0.315855,-1.05895 -0.500359,-6.19884 -0.228546,-6.36683 0.150288,-0.0929 0.446069,1.06697 0.71573,2.80661 0.659563,4.25497 0.514495,3.98509 2.044675,3.80386 1.699317,-0.20126 1.852987,-0.31384 1.542627,-1.13013 -0.54058,-1.42185 -0.0936,-6.98487 0.5612,-6.98487 0.13347,0 0.24266,1.29192 0.24266,2.87093 0,4.32691 0.47045,5.12008 2.77987,4.68683 1.04121,-0.19533 0.99072,0.0473 0.92585,-4.44891 -0.0189,-1.30736 0.0759,-2.3151 0.21766,-2.3151 0.29011,0 0.4792,0.94313 0.7294,3.63802 l 0.1781,1.91823 1.35487,-0.008 c 2.18402,-0.0136 2.28607,-0.18929 2.31883,-3.99306 0.0219,-2.53652 -0.0743,-3.52577 -0.42647,-4.38907 -0.54232,-1.32937 -1.09205,-1.56135 -2.40246,-1.01383 -1.2254,0.512 -1.7335,0.52115 -1.54419,0.0278 0.10447,-0.27223 -0.12891,-0.43233 -0.81887,-0.56177 -1.12219,-0.21052 -2.85804,0.44954 -3.46641,1.31813 -0.32285,0.46092 -0.45868,0.49337 -0.90325,0.21573 -0.28778,-0.17972 -0.70741,-0.32677 -0.93251,-0.32677 -0.610626,0 -3.037501,1.28872 -3.037501,1.61298 0,0.17427 -0.299488,0.21537 -0.787805,0.10811 -1.155245,-0.25373 -1.695012,0.0143 -2.340093,1.16208 -0.778212,1.38464 -0.790916,3.9805 -0.02819,5.75999 0.778771,1.81693 1.206956,2.20475 2.434204,2.20475 0.963229,0 1.033793,-0.0483 0.870619,-0.59531 z"
       style="fill:#000000"
       id="path1" />
  </g>
</svg>
