<?xml version="1.0" encoding="UTF-8" standalone="no"?>
<!-- Created with Inkscape (http://www.inkscape.org/) -->

<svg
   viewBox="0 0 31.999999 32"
   version="1.1"
   id="svg1"
   xmlns="http://www.w3.org/2000/svg">
  <defs
     id="defs1" />
  <g
     id="layer1"
     transform="translate(-87.773185,-162.08513)">
    <path
       d="m 101.94142,187.60363 c -0.31677,-0.12767 -1.09068,-0.60743 -1.71979,-1.06613 -0.629116,-0.45871 -2.220186,-1.33893 -3.535696,-1.95605 -2.7167,-1.27443 -3.7721,-2.32537 -4.45325,-4.43441 -0.79974,-2.47626 -0.41334,-5.10085 1.02945,-6.99245 0.36095,-0.47323 0.65476,-0.95765 0.65292,-1.0765 -0.002,-0.11885 -0.35903,-0.91748 -0.79375,-1.77473 -1.38363,-2.72848 -0.99015,-3.24038 1.62599,-2.11534 1.59081,0.68412 1.92783,0.72685 6.050276,0.76707 2.40109,0.0234 5.43719,0.13527 6.74687,0.24854 2.7034,0.23378 4.01444,-0.0166 5.55253,-1.06036 0.54721,-0.37134 1.24815,-0.63904 1.55766,-0.59489 0.49351,0.0704 0.56139,0.25024 0.55183,1.46192 -0.008,1.01705 -0.17238,1.60006 -0.62289,2.2094 l -0.61199,0.82776 0.66234,1.23019 c 0.86179,1.60061 1.34441,4.00998 1.11272,5.55501 -0.29974,1.99882 -1.00793,3.06053 -2.79045,4.18342 -0.88771,0.55921 -2.33001,1.65227 -3.2051,2.42902 -2.11025,1.8731 -3.35526,2.41536 -5.51394,2.40161 -0.94588,-0.006 -1.97896,-0.11542 -2.29573,-0.24308 z m 3.7133,-1.34362 c 0.60822,-0.16889 1.68656,-0.89 2.66846,-1.78447 0.90628,-0.82557 2.38704,-1.94569 3.29059,-2.48915 1.94868,-1.17207 2.41297,-2.03942 2.41297,-4.5077 0,-1.26624 -0.16496,-2.00736 -0.67429,-3.02945 -0.95385,-1.91413 -1.19816,-2.06372 -2.38007,-1.45736 l -0.97652,0.50098 0.94069,0.55502 c 1.7888,1.05542 2.30777,3.25802 1.25422,5.32316 -2.00849,3.93695 -7.95362,2.75757 -7.95362,-1.57782 0,-2.55314 1.04081,-3.90198 3.68035,-4.76957 2.73983,-0.90055 4.78632,-2.03418 4.78632,-2.65132 0,-0.11937 -0.32742,-0.0805 -0.7276,0.0864 -0.43192,0.18012 -1.88348,0.27774 -3.57188,0.24021 -5.81541,-0.12924 -6.98831,-0.1177 -8.797396,0.0866 -1.52722,0.17245 -2.11893,0.11837 -3.37343,-0.30832 -0.83675,-0.2846 -1.52136,-0.45787 -1.52136,-0.38505 0,0.0728 0.30456,0.53169 0.67679,1.01971 0.75589,0.99103 2.14455,1.78113 3.59145,2.04341 1.292036,0.23421 2.951096,1.47822 3.492226,2.61857 1.4201,2.99262 -0.60904,6.15217 -3.920316,6.10431 -2.25071,-0.0325 -3.77241,-1.17264 -4.41131,-3.3051 -0.40333,-1.34622 -0.008,-2.67645 1.22285,-4.11439 0.82663,-0.96573 0.88208,-1.12126 0.50983,-1.4302 -0.35444,-0.29416 -0.49666,-0.24847 -0.93944,0.30179 -1.02243,1.27059 -1.53337,2.72095 -1.53337,4.35258 0,2.80421 1.21031,4.51028 3.95713,5.578 0.65484,0.25455 2.02406,0.99652 3.042696,1.64883 2.59657,1.66274 3.39237,1.86727 5.25403,1.35035 z m -2.67552,-0.46164 c -0.68581,-0.43542 -1.65246,-2.027 -1.65246,-2.72075 0,-0.52077 0.28519,-0.946 1.03026,-1.5361 1.28853,-1.02054 1.66075,-1.02082 2.51809,-0.002 0.79492,0.94471 0.85048,1.53124 0.2562,2.70482 -0.81193,1.6034 -1.40254,2.02986 -2.15209,1.55396 z m 1.23922,-1.86112 0.5212,-1.02162 -0.71426,-0.6842 -0.71425,-0.6842 -0.59531,0.61863 c -0.32742,0.34025 -0.59487,0.72092 -0.59433,0.84593 0.002,0.40472 1.04158,1.94708 1.31267,1.94708 0.1447,0 0.49763,-0.45973 0.78428,-1.02162 z m -3.85482,-3.31145 c 0.90517,-0.37821 1.75689,-1.73223 1.75689,-2.79302 0,-1.76231 -1.91982,-3.72183 -3.646436,-3.72183 -2.70309,0 -4.36466,2.93977 -2.96195,5.24049 0.90417,1.483 3.02122,2.0391 4.851496,1.27436 z m -3.096896,-2.2362 c -0.5783,-0.63901 -0.55649,-1.70804 0.046,-2.25326 1.35816,-1.22912 3.321116,0.54562 2.31012,2.08861 -0.51627,0.78792 -1.71616,0.87177 -2.35609,0.16465 z m 13.636996,1.30335 c 0.90672,-1.01179 1.21931,-2.53279 0.70782,-3.44407 -1.0256,-1.82724 -4.08935,-2.53658 -5.38025,-1.24568 -0.75446,0.75446 -1.23154,2.32532 -1.02296,3.36823 0.48521,2.42603 3.97908,3.23672 5.69539,1.32152 z m -3.22696,-0.89736 c -0.53359,-0.26994 -0.66146,-0.53215 -0.66146,-1.35632 0,-1.18779 0.50528,-1.6392 1.5432,-1.3787 1.02644,0.25762 1.62799,1.28201 1.21412,2.06754 -0.56109,1.06495 -1.02082,1.21137 -2.09586,0.66748 z"
       style="fill:#000000"
       id="path1" />
  </g>
</svg>
